PathFileType	4	(X/Y/Z)	OpenSim_Sub02_EMGStiffKnee_Magnet.trc
DataRate	CameraRate	NumFrames	NumMarkers	Units	OrigDataRate	OrigDataStartFrame	OrigNumFrames
100	100	23	8	m	100	987	7890
Frame#	Time	torso_imu_offset_imu	pelvis_imu_offset_imu	tibia_r_imu_offset_imu	femur_r_imu_offset_imu	tibia_l_imu_offset_imu	femur_l_imu_offset_imu	toes_r_imu_offset_imu	toes_l_imu_offset_imu
				X1	Y1	Z1	X2	Y2	Z2	X3	Y3	Z3	X4	Y4	Z4	X5	Y5	Z5	X6	Y6	Z6	X7	Y7	Z7	X8		Y8	Z8	

987	9.86000000	-0.95761677	-0.07464194	0.03232824	-0.64485490	0.08132174	-0.67918608	-0.37481632	-0.71599452	-0.24303867	-0.71387427	-0.41010255	0.23017147	-0.69331323	0.47696045	0.01068057	-0.68049119	0.44708473	0.24289140	-0.79584365	-0.43489604	-0.24896626	-0.62046999	-0.22594254	-0.50302266
988	9.87000000	-0.96065700	-0.07705955	0.02676466	-0.65661575	0.08658969	-0.67452784	-0.36286230	-0.71743126	-0.24464094	-0.71670973	-0.41390401	0.22701811	-0.69697349	0.46641815	0.02142520	-0.68548097	0.44395977	0.24362702	-0.79663487	-0.43573985	-0.23186174	-0.63216345	-0.22026789	-0.49666032
989	9.88000000	-0.96008883	-0.07864707	0.02374805	-0.65402946	0.09010681	-0.67306508	-0.34957924	-0.71882370	-0.24953861	-0.71440699	-0.41751874	0.22793856	-0.69317780	0.46716717	0.02095705	-0.68000187	0.44119918	0.25384067	-0.80465316	-0.44304202	-0.21479751	-0.64287969	-0.20842863	-0.48323105
990	9.89000000	-0.96021766	-0.07444530	0.02224092	-0.65239080	0.09655389	-0.66930236	-0.34440269	-0.72330689	-0.25389268	-0.71366452	-0.41445814	0.23413497	-0.69271581	0.46892985	0.01766944	-0.67980876	0.44471543	0.25466331	-0.81201920	-0.44822775	-0.19864196	-0.65630047	-0.18517039	-0.47251632
991	9.90000000	-0.96025490	-0.08112877	0.02093332	-0.65469716	0.10835179	-0.66733721	-0.33051390	-0.72812918	-0.25691270	-0.71381399	-0.41250082	0.22627678	-0.69032526	0.46947930	0.02283388	-0.68209186	0.43442836	0.26122132	-0.81795163	-0.44723079	-0.18123171	-0.65820870	-0.17794576	-0.47851339
992	9.91000000	-0.95924507	-0.08143258	0.01811953	-0.65546107	0.11592390	-0.66505807	-0.30963057	-0.73485067	-0.25495684	-0.71811155	-0.41088408	0.23167531	-0.68353420	0.48235622	0.02167592	-0.67972460	0.42675397	0.26261426	-0.81943792	-0.44492703	-0.16606563	-0.64669599	-0.17076073	-0.49498869
993	9.92000000	-0.95758386	-0.08369756	0.01541897	-0.65782619	0.12075052	-0.65962151	-0.29813073	-0.74014610	-0.25987391	-0.71924755	-0.40725638	0.23222903	-0.66993731	0.50365199	0.02154127	-0.67904104	0.43029294	0.27164506	-0.82287556	-0.44859619	-0.14514458	-0.63831363	-0.16748344	-0.50785053
994	9.93000000	-0.95826664	-0.08870710	0.00817904	-0.66116482	0.12487965	-0.65591173	-0.28056036	-0.74978903	-0.26287152	-0.71915107	-0.40046555	0.22932310	-0.64756576	0.53146859	0.03061384	-0.67820331	0.42194787	0.28256357	-0.82934422	-0.44771459	-0.11530951	-0.63919623	-0.16798803	-0.51571228
995	9.94000000	-0.95570500	-0.08830523	0.01093687	-0.66490083	0.13029904	-0.65714358	-0.25716714	-0.75300315	-0.26274882	-0.72582024	-0.39486806	0.22932810	-0.63595856	0.54894791	0.03195126	-0.67926087	0.41825175	0.28617084	-0.83332464	-0.44617987	-0.08076701	-0.63634138	-0.15874183	-0.52216481
996	9.95000000	-0.95453129	-0.09658414	0.00680125	-0.66756336	0.13915551	-0.65873750	-0.23911199	-0.75562569	-0.26864841	-0.73326339	-0.39235950	0.22163389	-0.63316010	0.54632596	0.02881495	-0.67576116	0.42151962	0.29569593	-0.83555337	-0.44705568	-0.04982555	-0.64101921	-0.15576051	-0.52745670
997	9.96000000	-0.95716065	-0.09988158	0.00442317	-0.66734440	0.13743278	-0.64469290	-0.22248489	-0.76729195	-0.26602306	-0.73816815	-0.38186922	0.21592264	-0.63871554	0.54240837	0.02353448	-0.67082949	0.42070436	0.29848850	-0.83346089	-0.44142871	-0.01366780	-0.64193404	-0.14942207	-0.52451195
998	9.97000000	-0.95386945	-0.10582857	0.00412710	-0.66814164	0.13886199	-0.64024014	-0.20134260	-0.76971866	-0.26280934	-0.74753431	-0.37059872	0.20571903	-0.64552229	0.53992261	0.02735422	-0.66275417	0.43022129	0.29803940	-0.83876217	-0.44147179	0.03207554	-0.64065675	-0.14634614	-0.52584626
999	9.98000000	-0.95193401	-0.11254772	0.00240038	-0.67521200	0.13884009	-0.64505919	-0.18140630	-0.77361565	-0.26711485	-0.75171428	-0.36583601	0.20083355	-0.64204913	0.53624216	0.02869753	-0.65139276	0.43813664	0.30679741	-0.83715357	-0.44439009	0.08189434	-0.64755160	-0.14807498	-0.52269779
1000	9.99000000	-0.94899388	-0.11462556	-0.00177935	-0.67732054	0.14110553	-0.64081836	-0.15905196	-0.77707078	-0.27681643	-0.75911654	-0.34948454	0.18764397	-0.63819411	0.54364240	0.02906502	-0.64731063	0.44883073	0.30498355	-0.82469587	-0.44630012	0.12959230	-0.64946099	-0.14491271	-0.52344697
1001	10.00000000	-0.94984250	-0.12352659	-0.00599107	-0.67799181	0.15038292	-0.63251049	-0.14024227	-0.78109361	-0.27724101	-0.77027732	-0.33530899	0.17049765	-0.62783386	0.55306984	0.03451365	-0.63997090	0.45696043	0.30682953	-0.81282186	-0.44676623	0.17078475	-0.65387222	-0.14466987	-0.52537633
1002	10.01000000	-0.95137457	-0.12979953	-0.00513291	-0.68068716	0.15088827	-0.62811473	-0.11906204	-0.77758112	-0.28904095	-0.78055098	-0.32127182	0.16034031	-0.62305765	0.56521315	0.03633638	-0.62738039	0.46677462	0.31008638	-0.80263833	-0.44746768	0.20208650	-0.65638051	-0.14674709	-0.52100567
1003	10.02000000	-0.95059908	-0.14010081	-0.00428602	-0.68172769	0.15747742	-0.62216116	-0.10220551	-0.78065016	-0.29985844	-0.78397648	-0.31024378	0.15461084	-0.62359833	0.56590974	0.04623081	-0.62513105	0.47243865	0.31049577	-0.78816260	-0.46399529	0.22781139	-0.66539428	-0.14516662	-0.52200301
1004	10.03000000	-0.94956054	-0.14785539	0.00000949	-0.68332523	0.15640502	-0.62691580	-0.08389637	-0.77704041	-0.30918541	-0.79501548	-0.29860642	0.14354797	-0.62468823	0.55942338	0.05421087	-0.61855489	0.47621679	0.32232872	-0.77294868	-0.48189964	0.24346402	-0.66765588	-0.14456029	-0.52287622
1005	10.04000000	-0.94388976	-0.14704513	0.00141817	-0.68148185	0.15751740	-0.62497392	-0.07248801	-0.77291204	-0.31285528	-0.80180785	-0.28371954	0.13097623	-0.62423696	0.56298197	0.05055448	-0.61018538	0.48098105	0.33147647	-0.75414591	-0.50115401	0.24410513	-0.67242752	-0.14694712	-0.52212966
1006	10.05000000	-0.94760064	-0.14651778	-0.00494405	-0.67872101	0.16357115	-0.62497931	-0.06443882	-0.77324200	-0.31575900	-0.80253290	-0.27475147	0.11546857	-0.62108348	0.56627459	0.04812340	-0.59899330	0.48609498	0.33207748	-0.73479773	-0.52572172	0.22708096	-0.67559917	-0.14495813	-0.51610253
1007	10.06000000	-0.94782344	-0.15454433	-0.00477839	-0.67711001	0.16915728	-0.62413402	-0.05118797	-0.77426340	-0.31137156	-0.81088008	-0.26544206	0.10616361	-0.62076330	0.57410002	0.04543823	-0.59016922	0.49715462	0.33122099	-0.71047915	-0.56106938	0.19440355	-0.68138670	-0.14071755	-0.51292255
1008	10.07000000	-0.94527326	-0.16221857	-0.00234927	-0.67232393	0.17707156	-0.61954531	-0.04580551	-0.77425895	-0.31338048	-0.81592312	-0.25194820	0.09612398	-0.61414933	0.58432218	0.03842313	-0.58858861	0.50032494	0.33257132	-0.69105792	-0.59373491	0.15677381	-0.69068680	-0.14005402	-0.50743767
1009	10.08000000	-0.94573240	-0.16405597	-0.00800536	-0.67182214	0.17866755	-0.62921222	-0.04827720	-0.76971309	-0.31468678	-0.82079669	-0.24099933	0.07917107	-0.60526075	0.58795305	0.03890194	-0.58349618	0.50643164	0.33488417	-0.67315969	-0.61416899	0.12922286	-0.69158537	-0.13861765	-0.50854743
